<!-- Generator: Adobe Illustrator 23.0.1, SVG Export Plug-In  -->
<svg version="1.1" xmlns="http://www.w3.org/2000/svg" xmlns:xlink="http://www.w3.org/1999/xlink" x="0px" y="0px"
	 width="600.786px" height="75.179px" viewBox="0 0 600.786 75.179" style="enable-background:new 0 0 600.786 75.179;"
	 xml:space="preserve">
<style type="text/css">
	.st0{fill:#180D07;}
</style>
<defs>
</defs>
<g>
	<path class="st0" d="M52.969,58.501c-4.974,1.508-8.773,4.833-11.398,9.974c-1.286-0.614-3.437-2.515-6.454-5.699
		c-2.459-2.569-4.777-3.994-6.957-4.274v-0.754c3.129-0.838,4.694-3.575,4.694-8.214c0-1.787-0.7-6.173-2.096-13.158
		c-0.727-0.167-1.481-0.251-2.263-0.251c-7.153,0-10.728,4.722-10.728,14.164c0,5.309,2.066,8.438,6.202,9.387v0.754
		c-2.068,0.448-4.136,1.508-6.202,3.185c-2.292,1.9-3.576,3.771-3.855,5.616c-1.286-3.129-3.297-4.694-6.034-4.694
		c-1.397,0-2.669,0.434-3.813,1.299c-1.146,0.867-1.718,1.915-1.718,3.143c0,1.005,0.587,2.066,1.76,3.185
		c1.173,1.117,1.76,1.731,1.76,1.844l-0.335,0.251c-1.454,0-2.766-0.951-3.939-2.85C0.53,69.675,0,68.028,0,66.463
		c0-2.793,1.019-5.112,3.059-6.957c2.039-1.844,4.484-2.766,7.333-2.766c0.95,0,1.872,0.084,2.766,0.251
		c0.447-1.676,1.061-4.204,1.844-7.585c0.782-3.38,1.173-5.964,1.173-7.752c0-2.793-2.095-5.14-6.286-7.041
		c5.699-1.228,9.358-7.933,10.979-20.115c0.055-0.447,0.084-0.949,0.084-1.509c0-2.234-0.769-4.218-2.305-5.951
		c-1.537-1.731-3.423-2.598-5.657-2.598c-1.732,0-3.283,0.658-4.651,1.97c-1.37,1.313-2.054,2.808-2.054,4.484
		c0,1.341,0.391,2.473,1.173,3.395c0.782,0.922,1.76,1.383,2.934,1.383c0.223,0,0.614-0.055,1.173-0.167
		c0.558-0.111,0.893-0.168,1.006-0.168c0.223,0,0.39,0.057,0.503,0.168c-0.503,0.895-1.676,1.341-3.52,1.341
		c-1.622,0-2.934-0.656-3.939-1.97c-1.006-1.312-1.508-2.862-1.508-4.651c0-3.072,1.312-5.586,3.939-7.543
		C10.393,0.895,13.158,0,16.343,0c3.631,0,7.347,1.286,11.147,3.855c4.134,2.85,7.012,4.555,8.633,5.112
		c2.291,0.838,5.615,1.257,9.974,1.257v1.676c-0.224-0.055-0.559-0.084-1.006-0.084c-3.8,0-5.699,2.095-5.699,6.286
		c0,1.118,0.167,2.543,0.503,4.274l4.777,24.473c0.446,2.347,1.341,4.526,2.682,6.537c1.62,2.515,3.491,3.633,5.615,3.353V58.501z
		 M30.34,33.776l-4.19-21.121c-0.67-3.464-2.068-6.131-4.191-8.004c-2.124-1.871-4.806-2.667-8.046-2.389l-0.335,0.084
		c0.614,0.167,1.494,0.448,2.64,0.838c1.145,0.392,1.997,0.699,2.556,0.922c3.128,1.676,4.693,4.609,4.693,8.8
		c0,1.508-0.364,3.828-1.089,6.956c-0.671,2.906-1.006,5.196-1.006,6.873c0,4.861,2.15,7.292,6.454,7.292
		C28.607,34.028,29.445,33.944,30.34,33.776z"/>
	<path class="st0" d="M78.557,51.843c-6.453,0-11.427,2.08-14.926,6.239c-1.944-2.293-3.906-3.44-5.889-3.44
		c-1.905,0-3.304,1.147-4.198,3.44h-0.35c0.194-2.799,0.835-4.8,1.924-6.005c0.583-0.621,1.729-1.341,3.44-2.157
		c1.71-0.816,2.915-1.691,3.615-2.624c0.544,0.933,1.438,1.963,2.682,3.09c1.36,1.245,2.507,1.866,3.44,1.866
		c0.621,0,0.933-0.369,0.933-1.107v-5.248c0-2.604-1.671-3.906-5.014-3.906c-3.343,0-5.811,1.166-7.404,3.498V38.9
		c0-2.993-1.07-5.091-3.207-6.297c2.916,0,5.831-0.621,8.746-1.866c3.148-1.36,5.46-3.167,6.938-5.422
		c1.866,3.538,4.625,5.967,8.279,7.288h-0.408c-1.672,0-3.11,0.535-4.315,1.604c-1.205,1.069-1.963,2.459-2.273,4.169
		c-0.545-1.477-1.361-2.896-2.449-4.256c-1.361-1.71-2.663-2.565-3.907-2.565c-0.622,0-0.933,0.35-0.933,1.049
		c0,2.721,0.214,4.606,0.644,5.656c0.742,1.827,2.265,2.74,4.569,2.74c2.772,0,5.213-1.205,7.322-3.615v8.57
		C75.817,48.753,76.73,50.717,78.557,51.843z"/>
	<path class="st0" d="M95.407,37.093h-1.225v-1.05c0-0.311,0-0.66,0-1.049c0-1.399-0.262-2.332-0.787-2.799
		c-0.524-0.466-1.526-0.699-3.002-0.699V44.73c0,3.615,1.108,5.947,3.323,6.997c-1.827,1.011-3.129,1.866-3.906,2.565
		c-0.895,0.855-1.808,2.119-2.74,3.79c-1.049-1.827-1.963-3.109-2.74-3.848c-0.545-0.544-1.866-1.379-3.965-2.507
		c1.321-0.622,2.216-1.593,2.682-2.916c0.311-0.894,0.466-2.253,0.466-4.081V31.496h-3.965v-2.624h3.965v-6.063
		c0-1.049-0.545-2.041-1.632-2.974c-0.117-0.117-0.72-0.602-1.808-1.458l0.058-0.058c0.94-0.117,2.272-0.408,3.996-0.875
		c0.9-0.311,2.682-1.438,5.346-3.382c2.037-1.477,4.015-2.352,5.934-2.624l-0.06,0.758c-3.303,1.011-4.954,4.528-4.954,10.553v6.122
		c1.827,0,2.935-0.252,3.323-0.758c0.271-0.35,0.408-1.477,0.408-3.382h1.283V37.093z"/>
	<path class="st0" d="M119.603,32.603c-1.399,0.623-2.585,2.236-3.557,4.839c-0.7,1.866-1.206,3.906-1.516,6.122h-0.058
		c-0.117-1.788-0.642-3.809-1.574-6.064c-1.166-2.798-2.43-4.198-3.79-4.198c-1.166,0-1.749,0.953-1.749,2.857v11.836
		c1.749,1.982,3.42,3.168,5.014,3.556c0.816,0.195,2.876,0.292,6.18,0.292c-2.177,0.7-4.004,1.516-5.48,2.449
		c-1.166,0.739-2.702,2.002-4.606,3.79c-0.855-1.554-2.517-2.982-4.985-4.285c-2.469-1.302-4.635-1.954-6.501-1.954
		c0.894-0.077,1.729-0.952,2.507-2.624c0.7-1.516,1.05-2.798,1.05-3.848v-6.588c0-2.759-1.206-4.819-3.615-6.18
		c2.526,0,4.761-2.429,6.705-7.288c1.516,4.004,3.265,6.005,5.248,6.005s3.809-2.001,5.48-6.005l1.866,4.256
		C116.998,30.933,118.125,31.943,119.603,32.603z"/>
	<path class="st0" d="M145.139,51.085c-6.492,0.117-11.019,2.449-13.584,6.997c-0.895-1.554-2.576-3.09-5.043-4.606
		c-2.469-1.516-4.577-2.312-6.326-2.391c0.933-0.038,1.71-0.835,2.333-2.39c0.544-1.321,0.816-2.507,0.816-3.557v-6.53
		c0-3.187-1.03-5.364-3.09-6.53c2.604,0,5.15-0.583,7.638-1.75c2.682-1.243,4.625-2.915,5.831-5.014
		c0.816,1.438,2.487,2.906,5.014,4.402c2.526,1.497,4.644,2.284,6.355,2.361c-2.099,0.505-3.148,2.565-3.148,6.18v6.53
		C141.932,47.899,143.001,49.998,145.139,51.085z M135.519,51.668V38.55c0-1.671-0.603-3.187-1.807-4.548
		c-0.623-0.7-1.944-1.729-3.965-3.09V45.08C129.747,47.646,131.671,49.842,135.519,51.668z"/>
	<path class="st0" d="M161.289,12.372c-1.672,0.466-2.974,1.924-3.907,4.373c-0.739,1.905-1.107,3.926-1.107,6.063V44.73
		c0,1.711,0.175,2.954,0.524,3.731c0.466,0.972,1.379,1.788,2.74,2.449c-1.555,0.855-2.857,1.866-3.906,3.032
		c-0.7,0.778-1.613,2.157-2.74,4.14c-0.972-1.788-1.886-3.167-2.74-4.14c-1.011-1.166-2.332-2.176-3.965-3.032
		c1.425-0.621,2.336-1.438,2.732-2.449c0.316-0.777,0.475-2.021,0.475-3.731v-6.588c0-3.303-1.089-5.558-3.265-6.763
		c1.438-0.854,2.37-1.827,2.798-2.916c0.311-0.816,0.467-2.157,0.467-4.023c0-3.576-1.128-5.733-3.382-6.472
		c0.271,0.039,0.641,0.059,1.108,0.059c1.982,0,4.373-0.991,7.171-2.974c2.953-2.099,5.286-3.303,6.997-3.615V12.372z"/>
	<path class="st0" d="M185.659,51.085c-6.492,0.117-11.019,2.449-13.584,6.997c-0.895-1.554-2.576-3.09-5.043-4.606
		c-2.469-1.516-4.577-2.312-6.326-2.391c0.933-0.038,1.71-0.835,2.333-2.39c0.544-1.321,0.816-2.507,0.816-3.557v-6.53
		c0-3.187-1.03-5.364-3.09-6.53c2.604,0,5.15-0.583,7.638-1.75c2.682-1.243,4.625-2.915,5.831-5.014
		c0.816,1.438,2.487,2.906,5.014,4.402c2.526,1.497,4.644,2.284,6.355,2.361c-2.099,0.505-3.148,2.565-3.148,6.18v6.53
		C182.452,47.899,183.521,49.998,185.659,51.085z M176.039,51.668V38.55c0-1.671-0.603-3.187-1.807-4.548
		c-0.623-0.7-1.944-1.729-3.965-3.09V45.08C170.267,47.646,172.191,49.842,176.039,51.668z"/>
	<path class="st0" d="M211.72,64.845c-0.428-0.039-1.089-0.058-1.982-0.058c-2.877,0-5.5,0.408-7.871,1.224
		c-2.994,1.01-5.092,2.526-6.297,4.548c-1.555-2.371-3.538-3.557-5.947-3.557c-0.816,0-1.536,0.544-2.157,1.633
		c-0.623,1.087-0.875,1.632-0.758,1.632c-0.194,0-0.292-0.35-0.292-1.049c0-1.982,0.408-3.519,1.225-4.606
		c0.388-0.506,1.321-1.264,2.798-2.274c1.244-0.855,2.099-1.828,2.565-2.916c2.293,3.382,4.742,5.073,7.346,5.073
		c0.233,0,0.622-0.039,1.167-0.117V51.727c-2.449,0-4.276,0.524-5.481,1.574c-0.855,0.739-1.866,2.352-3.032,4.839
		c-0.895-1.982-1.691-3.381-2.391-4.198c-0.933-1.127-2.254-2.041-3.964-2.74c2.06-1.01,3.09-2.682,3.09-5.014v-7.812
		c0-3.109-1.03-5.169-3.09-6.181c2.449,0,5.033-0.66,7.754-1.982c2.72-1.321,4.761-2.954,6.122-4.898
		c1.01,1.789,2.624,3.382,4.839,4.781c2.216,1.399,4.334,2.099,6.355,2.099c-1.069,0.156-1.919,0.953-2.552,2.391
		c-0.515,1.166-0.771,2.372-0.771,3.615v6.53c0,3.071,1.068,5.228,3.207,6.472c-1.438,0.895-2.372,1.924-2.799,3.09
		c-0.272,0.699-0.408,2.08-0.408,4.139C208.397,62.202,209.504,64.34,211.72,64.845z M201.517,50.036V39.542
		c0-3.576-1.73-6.18-5.189-7.813v15.393c0,1.982,1.36,2.973,4.082,2.973C200.759,50.094,201.128,50.075,201.517,50.036z"/>
	<path class="st0" d="M238.481,51.518c-1.166,0.233-2.002,0.951-2.507,2.155c-0.35,0.815-0.662,2.019-0.933,3.61
		c-0.272,1.59-0.622,2.716-1.049,3.377c-0.7,1.126-1.905,2.135-3.615,3.028l-4.49,2.387c-1.594,1.126-2.76,2.62-3.498,4.484
		c-1.555-2.371-3.538-3.557-5.947-3.557c-0.816,0-1.536,0.544-2.157,1.633c-0.622,1.087-0.875,1.632-0.758,1.632
		c-0.195,0-0.292-0.35-0.292-1.049c0-1.982,0.408-3.519,1.225-4.606c0.233-0.312,1.126-1.011,2.682-2.099
		c1.244-0.855,2.137-1.886,2.682-3.09c1.749,2.565,3.595,3.848,5.539,3.848c1.982,0,2.973-1.866,2.973-5.597V35.635
		c0-1.943-0.855-2.915-2.565-2.915c-1.749,0-2.624,0.972-2.624,2.915v10.553c0,1.011,0.292,2.061,0.875,3.148
		c0.661,1.283,1.418,2.002,2.274,2.157c-1.749,0.233-3.129,1.011-4.14,2.332c-0.583,0.739-1.361,2.177-2.332,4.314
		c-0.855-1.866-1.662-3.245-2.419-4.139c-0.758-0.894-2.07-1.729-3.936-2.507c0.894-0.427,1.632-1.156,2.215-2.187
		c0.583-1.029,0.875-2.07,0.875-3.119v-7.871c0-1.283-0.214-2.468-0.641-3.557c-0.545-1.477-1.361-2.215-2.449-2.215
		c1.593-0.809,2.876-1.812,3.848-3.007c0.543-0.656,1.341-2.063,2.39-4.223c2.216,3.927,4.294,5.889,6.239,5.889
		c1.904,0,3.964-1.962,6.18-5.889c1.399,3.456,3.459,5.882,6.18,7.279c-1.049,0-1.847,0.719-2.391,2.154
		c-0.428,1.087-0.641,2.251-0.641,3.494v6.463C235.274,48.083,236.343,50.354,238.481,51.518z"/>
	<path class="st0" d="M308.314,58.92c-7.432,0.615-12.544,1.313-15.338,2.095c-4.917,1.397-9.332,3.996-13.242,7.794
		c-1.621-3.631-4.89-5.448-9.806-5.448c-2.011,0-3.66,0.476-4.945,1.425c-1.454,1.062-2.179,2.543-2.179,4.442
		c0,1.787,0.824,3.101,2.473,3.939c1.647,0.838,2.473,1.369,2.473,1.592c0,0.279-0.251,0.419-0.754,0.419
		c-2.124,0-3.912-1.005-5.364-3.017c-1.341-1.844-2.011-3.855-2.011-6.034c0-4.078,1.396-7.235,4.19-9.471
		c1.173-0.949,3.799-2.318,7.878-4.106c3.017-1.341,4.637-2.905,4.861-4.693c0.279,3.129,1.886,5.896,4.819,8.297
		c2.934,2.403,5.993,3.66,9.178,3.771v-20.45c0-2.961-2.208-4.442-6.621-4.442c-3.298,0-6.705,0.894-10.225,2.682
		c-3.855,1.957-6.091,4.471-6.705,7.543V21.456c0-3.296-0.392-5.699-1.173-7.208c-1.119-2.066-3.185-3.072-6.202-3.017v-1.76h8.381
		c4.581,0,8.017-0.474,10.309-1.425c1.117-0.446,2.961-1.592,5.532-3.436c2.234-1.62,4.497-2.737,6.789-3.353
		c0.838-0.223,1.564-0.335,2.179-0.335c1.061,0,2.066,0.67,3.017,2.012c1.229,1.789,2.431,3.101,3.604,3.939
		c2.066,1.509,5.029,2.375,8.884,2.598v1.76c-3.688,0.224-6.845,1.467-9.471,3.729c-2.627,2.263-4.303,5.211-5.029,8.842
		c-1.676-9.219-6.342-13.913-13.997-14.081v17.852c0,3.297,1.899,4.945,5.699,4.945c2.793,0,6.005-0.866,9.638-2.598
		c3.911-1.844,6.454-3.883,7.627-6.118v22.378c0,2.962,0.251,5.252,0.754,6.873c0.782,2.514,2.374,3.884,4.777,4.106V58.92z
		 M285.937,31.01c-0.335-0.055-0.951-0.195-1.844-0.419V12.153c0.614,0.392,1.229,0.699,1.844,0.922V31.01z M285.937,56.908
		c-0.615-0.279-1.146-0.614-1.592-1.005l-0.251-0.084V36.793h1.006c0.055,0,0.195,0.029,0.419,0.084h0.419V56.908z"/>
	<path class="st0" d="M331.427,51.144c-1.399,0.039-3.227,0.933-5.48,2.682c-1.011,0.778-2.604,2.197-4.781,4.256
		c-0.739-1.321-2.43-2.789-5.073-4.402c-2.644-1.613-4.723-2.458-6.238-2.536c1.087-0.078,1.962-0.835,2.624-2.274
		c0.583-1.205,0.875-2.429,0.875-3.673v-6.53c0-2.993-1.186-5.15-3.557-6.472c7.035,0,12.088-2.293,15.159-6.88
		c1.01,1.905,1.866,3.265,2.565,4.082c0.894,1.049,2.195,1.982,3.906,2.798c-1.399,0.623-2.624,2.274-3.673,4.956
		c-0.778,1.944-1.322,4.023-1.633,6.239h-0.117c-0.312-2.643-0.836-4.975-1.574-6.997c-1.205-3.226-2.663-4.781-4.373-4.665V44.73
		C320.058,49.007,323.848,51.144,331.427,51.144z"/>
	<path class="st0" d="M358.363,51.202c-1.711,0.895-2.838,2.644-3.382,5.248c-0.7,3.303-1.419,5.539-2.157,6.705
		c-1.594,2.526-4.568,4.334-8.92,5.422v-0.933c2.915-0.855,4.373-3.323,4.373-7.405V35.81c0-1.399-0.972-2.333-2.915-2.799
		c-0.7-0.155-1.574-0.233-2.624-0.233h-0.7v12.244c0,1.711,0.175,2.954,0.525,3.731c0.466,0.972,1.379,1.788,2.74,2.449
		c-1.478,0.816-2.78,1.847-3.907,3.09c-0.699,0.778-1.613,2.157-2.74,4.139c-1.011-1.787-1.944-3.167-2.798-4.139
		c-1.011-1.205-2.332-2.235-3.965-3.09c1.425-0.621,2.336-1.438,2.732-2.449c0.316-0.777,0.475-2.021,0.475-3.731v-6.705
		c0-3.265-1.108-5.519-3.324-6.763c1.516-1.01,2.468-1.982,2.857-2.915c0.311-0.777,0.467-2.137,0.467-4.082
		c0-3.303-1.147-5.422-3.44-6.355c0.621,0.078,1.087,0.117,1.399,0.117c1.788,0,4.236-1.127,7.347-3.382
		c3.109-2.254,5.5-3.382,7.171-3.382c1.632,0,3.051,0.428,4.256,1.283c1.36,0.972,2.041,2.236,2.041,3.79
		c0,1.088-0.341,1.992-1.021,2.711c-0.681,0.72-1.565,1.079-2.653,1.079c-2.138,0-3.207-0.991-3.207-2.973
		c0-0.777,0.252-1.438,0.758-1.982c0.504-0.544,1.146-0.816,1.924-0.816c1.516,0,2.352,0.933,2.507,2.799
		c0.077-0.383,0.117-0.651,0.117-0.806c0-0.958-0.389-1.752-1.167-2.385c-0.778-0.632-1.69-0.949-2.74-0.949
		c-2.254,0-3.926,1.124-5.014,3.371c-0.895,1.821-1.341,3.913-1.341,6.276v8.136c2.565,0,4.586-0.525,6.063-1.574
		c1.283-0.933,2.507-2.624,3.673-5.073c0.894,1.982,1.729,3.421,2.507,4.314c0.971,1.128,2.333,2.061,4.082,2.799
		c-2.138,1.049-3.207,2.798-3.207,5.248v8.104C355.156,46.966,356.225,49.065,358.363,51.202z"/>
	<path class="st0" d="M384.833,51.085c-6.492,0.117-11.019,2.449-13.584,6.997c-0.895-1.554-2.576-3.09-5.043-4.606
		c-2.469-1.516-4.577-2.312-6.326-2.391c0.933-0.038,1.71-0.835,2.333-2.39c0.544-1.321,0.816-2.507,0.816-3.557v-6.53
		c0-3.187-1.03-5.364-3.09-6.53c2.604,0,5.15-0.583,7.638-1.75c2.682-1.243,4.625-2.915,5.831-5.014
		c0.816,1.438,2.487,2.906,5.014,4.402c2.526,1.497,4.644,2.284,6.355,2.361c-2.099,0.505-3.148,2.565-3.148,6.18v6.53
		C381.626,47.899,382.695,49.998,384.833,51.085z M375.212,51.668V38.55c0-1.671-0.603-3.187-1.807-4.548
		c-0.623-0.7-1.944-1.729-3.965-3.09V45.08C369.44,47.646,371.365,49.842,375.212,51.668z"/>
	<path class="st0" d="M410.719,51.085c-6.492,0.117-11.019,2.449-13.584,6.997c-0.895-1.554-2.576-3.09-5.043-4.606
		c-2.469-1.516-4.577-2.312-6.326-2.391c0.933-0.038,1.71-0.835,2.333-2.39c0.544-1.321,0.816-2.507,0.816-3.557v-6.53
		c0-3.187-1.03-5.364-3.09-6.53c2.604,0,5.15-0.583,7.638-1.75c2.682-1.243,4.625-2.915,5.831-5.014
		c0.816,1.438,2.487,2.906,5.014,4.402c2.526,1.497,4.644,2.284,6.355,2.361c-2.099,0.505-3.148,2.565-3.148,6.18v6.53
		C407.512,47.899,408.581,49.998,410.719,51.085z M401.099,51.668V38.55c0-1.671-0.603-3.187-1.807-4.548
		c-0.623-0.7-1.944-1.729-3.965-3.09V45.08C395.327,47.646,397.251,49.842,401.099,51.668z"/>
	<path class="st0" d="M426.869,12.372c-1.672,0.466-2.974,1.924-3.907,4.373c-0.739,1.905-1.107,3.926-1.107,6.063V44.73
		c0,1.711,0.175,2.954,0.524,3.731c0.466,0.972,1.379,1.788,2.74,2.449c-1.555,0.855-2.857,1.866-3.906,3.032
		c-0.7,0.778-1.613,2.157-2.74,4.14c-0.972-1.788-1.886-3.167-2.74-4.14c-1.011-1.166-2.332-2.176-3.965-3.032
		c1.425-0.621,2.336-1.438,2.732-2.449c0.316-0.777,0.475-2.021,0.475-3.731v-6.588c0-3.303-1.089-5.558-3.265-6.763
		c1.438-0.854,2.37-1.827,2.798-2.916c0.311-0.816,0.467-2.157,0.467-4.023c0-3.576-1.128-5.733-3.382-6.472
		c0.271,0.039,0.641,0.059,1.108,0.059c1.982,0,4.373-0.991,7.171-2.974c2.953-2.099,5.286-3.303,6.997-3.615V12.372z"/>
	<path class="st0" d="M498.184,11.147c-4.079,0-6.957,8.13-8.633,24.389c-0.167-3.743-1.005-8.352-2.514-13.829
		c-1.957-7.041-4.136-10.561-6.537-10.561v-1.76c3.24-1.341,4.861-2.653,4.861-3.939c0-1.117-1.062-1.676-3.185-1.676
		c-2.403,0-3.604,1.816-3.604,5.448V47.94c0,3.409,0.572,5.672,1.718,6.789c1.145,1.118,3.45,1.816,6.915,2.095v1.76
		c-2.85,0.224-5.755,1.286-8.716,3.185c-3.241,2.011-5.336,4.247-6.286,6.705c-2.403-3.408-5.252-5.113-8.549-5.113
		c-1.9,0-3.465,0.476-4.693,1.425c-1.229,0.951-1.844,2.292-1.844,4.023c0,1.564,0.642,2.653,1.928,3.269
		c0.67,0.335,1.006,0.586,1.006,0.754c0,0.391-0.308,0.587-0.922,0.587c-1.564,0-2.822-0.811-3.771-2.431
		c-0.783-1.341-1.173-2.85-1.173-4.526c0-3.072,1.173-5.643,3.52-7.71c2.123-1.899,4.777-3.101,7.962-3.604V11.147
		c-2.738,0-4.917,1.649-6.538,4.945c-1.341,2.627-2.292,6.091-2.85,10.393c-0.224,2.012-0.586,5.058-1.089,9.136
		c-0.167-6.257-1.538-12.264-4.107-18.02c-1.844-4.19-3.632-6.341-5.364-6.454V9.355c4.581-0.909,7.543-3.525,8.884-7.847
		c1.563,5.252,4.469,7.878,8.716,7.878c2.737,0,5.993-1.312,9.764-3.939c3.771-2.625,6.802-3.939,9.093-3.939
		c3.072,0,5.616,0.559,7.627,1.676c0.614,0.335,1.899,1.481,3.855,3.436c1.396,1.397,2.905,2.319,4.526,2.766V11.147z"/>
	<path class="st0" d="M520.095,51.085c-6.492,0.117-11.019,2.449-13.584,6.997c-0.895-1.554-2.576-3.09-5.043-4.606
		c-2.469-1.516-4.577-2.312-6.326-2.391c0.933-0.038,1.71-0.835,2.333-2.39c0.544-1.321,0.816-2.507,0.816-3.557v-6.53
		c0-3.187-1.03-5.364-3.09-6.53c2.604,0,5.15-0.583,7.638-1.75c2.682-1.243,4.625-2.915,5.831-5.014
		c0.816,1.438,2.487,2.906,5.014,4.402c2.526,1.497,4.644,2.284,6.355,2.361c-2.099,0.505-3.148,2.565-3.148,6.18v6.53
		C516.888,47.899,517.957,49.998,520.095,51.085z M510.475,51.668V38.55c0-1.671-0.603-3.187-1.807-4.548
		c-0.623-0.7-1.944-1.729-3.965-3.09V45.08C504.703,47.646,506.627,49.842,510.475,51.668z"/>
	<path class="st0" d="M548.022,50.911c-1.633,0.895-2.896,1.905-3.79,3.032c-0.505,0.622-1.38,2.002-2.624,4.14
		c-1.245-2.137-2.119-3.518-2.624-4.14c-0.895-1.127-2.157-2.137-3.79-3.032c1.71-0.894,2.565-2.332,2.565-4.314
		c0-2.099-0.72-3.518-2.157-4.256c-1.361,0.622-2.798,1.07-4.314,1.341v0.933c0,1.711,0.175,2.974,0.525,3.79
		c0.466,1.05,1.399,1.886,2.798,2.507c-1.555,0.816-2.857,1.828-3.906,3.032c-0.7,0.778-1.613,2.157-2.74,4.14
		c-1.089-1.866-2.021-3.245-2.799-4.14c-1.011-1.166-2.332-2.176-3.964-3.032c1.385-0.661,2.295-1.496,2.732-2.507
		c0.316-0.738,0.475-1.962,0.475-3.673v-6.646c0-3.226-1.089-5.481-3.265-6.764c1.477-0.971,2.429-1.982,2.857-3.032
		c0.271-0.7,0.408-2.06,0.408-4.081c0-3.187-1.128-5.248-3.382-6.18c0.271,0.039,0.642,0.058,1.108,0.058
		c1.827,0,4.305-1.117,7.434-3.353c3.128-2.235,5.51-3.353,7.143-3.353c1.71,0,3.197,0.466,4.46,1.399
		c1.263,0.933,1.895,2.177,1.895,3.731c0,1.049-0.341,1.944-1.02,2.682c-0.681,0.739-1.545,1.107-2.595,1.107
		c-2.138,0-3.207-0.991-3.207-2.973c0-0.816,0.252-1.496,0.758-2.041c0.504-0.543,1.146-0.816,1.924-0.816
		c1.438,0,2.274,0.953,2.507,2.857c0.077-0.394,0.117-0.67,0.117-0.828c0-0.946-0.389-1.744-1.167-2.394
		c-0.778-0.65-1.69-0.976-2.74-0.976c-2.254,0-3.926,1.112-5.014,3.334c-0.895,1.794-1.341,3.881-1.341,6.259v7.781
		c2.643,0,4.567-0.447,5.772-1.341c1.088-0.777,2.235-2.41,3.44-4.897c0.777,1.516,1.671,2.935,2.682,4.256
		c1.477,1.866,2.72,2.798,3.731,2.798c-2.099,0.545-3.673,1.614-4.723,3.207c-0.661,1.049-1.691,2.663-3.09,4.839
		c0.7-0.194,1.302-0.292,1.808-0.292c2.06,0,3.867,0.933,5.422,2.799c-1.166,1.399-1.749,2.838-1.749,4.314
		C544.582,48.209,545.728,49.784,548.022,50.911z M538.343,36.393c0-1.399-0.516-2.487-1.545-3.265
		c-1.03-0.777-2.265-1.166-3.702-1.166c-0.545,0-1.147,0.058-1.808,0.175v10.086c1.943-0.311,3.518-0.875,4.723-1.69
		C537.565,39.483,538.343,38.104,538.343,36.393z"/>
	<path class="st0" d="M574.492,51.518c-1.166,0.233-2.002,0.951-2.507,2.155c-0.35,0.815-0.662,2.019-0.933,3.61
		c-0.272,1.59-0.622,2.716-1.049,3.377c-0.7,1.126-1.905,2.135-3.615,3.028l-4.49,2.387c-1.594,1.126-2.76,2.62-3.498,4.484
		c-1.555-2.371-3.538-3.557-5.947-3.557c-0.816,0-1.536,0.544-2.157,1.633c-0.622,1.087-0.875,1.632-0.758,1.632
		c-0.195,0-0.292-0.35-0.292-1.049c0-1.982,0.408-3.519,1.225-4.606c0.233-0.312,1.126-1.011,2.682-2.099
		c1.244-0.855,2.137-1.886,2.682-3.09c1.749,2.565,3.595,3.848,5.539,3.848c1.982,0,2.973-1.866,2.973-5.597V35.635
		c0-1.943-0.855-2.915-2.565-2.915c-1.749,0-2.624,0.972-2.624,2.915v10.553c0,1.011,0.292,2.061,0.875,3.148
		c0.661,1.283,1.418,2.002,2.274,2.157c-1.749,0.233-3.129,1.011-4.14,2.332c-0.583,0.739-1.361,2.177-2.332,4.314
		c-0.855-1.866-1.662-3.245-2.419-4.139c-0.758-0.894-2.07-1.729-3.936-2.507c0.894-0.427,1.632-1.156,2.215-2.187
		c0.583-1.029,0.875-2.07,0.875-3.119v-7.871c0-1.283-0.214-2.468-0.641-3.557c-0.545-1.477-1.361-2.215-2.449-2.215
		c1.593-0.809,2.876-1.812,3.848-3.007c0.543-0.656,1.341-2.063,2.39-4.223c2.216,3.927,4.294,5.889,6.239,5.889
		c1.904,0,3.964-1.962,6.18-5.889c1.399,3.456,3.459,5.882,6.18,7.279c-1.049,0-1.847,0.719-2.391,2.154
		c-0.428,1.087-0.641,2.251-0.641,3.494v6.463C571.285,48.083,572.354,50.354,574.492,51.518z"/>
	<path class="st0" d="M600.786,51.085c-6.492,0.117-11.019,2.449-13.584,6.997c-0.895-1.554-2.576-3.09-5.043-4.606
		c-2.469-1.516-4.577-2.312-6.326-2.391c0.933-0.038,1.71-0.835,2.333-2.39c0.544-1.321,0.816-2.507,0.816-3.557v-6.53
		c0-3.187-1.03-5.364-3.09-6.53c2.604,0,5.15-0.583,7.638-1.75c2.682-1.243,4.625-2.915,5.831-5.014
		c0.816,1.438,2.487,2.906,5.014,4.402c2.526,1.497,4.644,2.284,6.355,2.361c-2.099,0.505-3.148,2.565-3.148,6.18v6.53
		C597.58,47.899,598.648,49.998,600.786,51.085z M591.166,51.668V38.55c0-1.671-0.603-3.187-1.807-4.548
		c-0.623-0.7-1.944-1.729-3.965-3.09V45.08C585.394,47.646,587.318,49.842,591.166,51.668z"/>
</g>
</svg>