<!-- Generator: Adobe Illustrator 24.0.0, SVG Export Plug-In  -->
<svg version="1.1" xmlns="http://www.w3.org/2000/svg" xmlns:xlink="http://www.w3.org/1999/xlink" x="0px" y="0px"
	 width="61.258px" height="58.257px" viewBox="0 0 61.258 58.257" style="enable-background:new 0 0 61.258 58.257;"
	 xml:space="preserve">
<style type="text/css">
	.st0{fill:none;}
	.st1{fill:#534740;}
	.st2{fill:#F4F7D8;}
</style>
<defs>
</defs>
<g>
	<path class="st0" d="M15.928,44.525c-0.772-0.092-1.533-0.226-2.28-0.404c-1.514-0.282-3.05-0.812-4.595-1.582
		c0.02,0.039,0.044,0.076,0.064,0.115c1.442,0.69,2.876,1.179,4.291,1.442C14.233,44.292,15.074,44.432,15.928,44.525z"/>
	<path class="st0" d="M17.06,24.864v-4.635c0-0.591-0.206-1.126-0.62-1.607c-0.213-0.247-0.666-0.611-1.36-1.092v5.006
		C15.081,23.442,15.74,24.218,17.06,24.864z"/>
	<path class="st0" d="M25.881,22.866v-3.193c0-0.384-0.073-0.721-0.22-1.01c-0.187-0.357-0.453-0.535-0.8-0.535
		c-0.72,0-1.073,0.728-1.06,2.184v3.955c0.484,0.028,0.936-0.075,1.353-0.309C25.638,23.683,25.881,23.319,25.881,22.866z"/>
	<path class="st0" d="M47.603,6.785c-2.963-1.996-6.129-3.312-9.409-3.911c-0.914-0.2-1.807-0.34-2.68-0.426
		c0.797,0.088,1.61,0.219,2.44,0.401c3.281,0.599,6.446,1.914,9.409,3.911c5.886,3.963,9.533,9.65,10.838,16.903
		c1.308,7.267-0.105,14.035-4.2,20.116c-4.123,6.123-9.868,9.99-17.078,11.491c-2.675,0.557-5.271,0.732-7.781,0.531
		c2.584,0.232,5.26,0.069,8.021-0.506c7.21-1.501,12.956-5.367,17.078-11.491c4.095-6.082,5.509-12.849,4.2-20.116
		C57.136,16.435,53.489,10.748,47.603,6.785z"/>
	<path class="st1" d="M4.281,25.832c0.786,0,1.466,0.419,2.039,1.256c0.227-0.604,0.727-1.154,1.5-1.648
		c0.706-0.466,1.4-0.728,2.08-0.783v-0.432c-0.827-0.069-1.376-0.241-1.649-0.515c-0.273-0.275-0.41-0.83-0.41-1.668v-9.518
		c0-0.893,0.286-1.339,0.86-1.339c0.506,0,0.761,0.137,0.761,0.412c0,0.316-0.387,0.639-1.161,0.968v0.432
		c0.573,0,1.094,0.865,1.561,2.596c0.36,1.346,0.56,2.479,0.6,3.4c0.4-3.996,1.086-5.995,2.06-5.995v-0.432
		c-0.387-0.109-0.747-0.336-1.08-0.68c-0.467-0.48-0.773-0.762-0.92-0.845c-0.48-0.274-1.087-0.411-1.82-0.411
		c-0.547,0-1.27,0.323-2.17,0.968c-0.9,0.646-1.677,0.968-2.33,0.968c-1.013,0-1.706-0.646-2.08-1.936
		C1.8,11.691,1.094,12.334,0,12.557v0.44c0.414,0.028,0.841,0.556,1.281,1.587c0.613,1.415,0.939,2.891,0.98,4.429
		c0.12-1.002,0.206-1.751,0.26-2.245c0.133-1.058,0.361-1.909,0.68-2.555c0.387-0.81,0.908-1.216,1.561-1.216v10.816
		c-0.761,0.123-1.394,0.419-1.9,0.885C2.3,25.207,2.02,25.839,2.02,26.594c0,0.412,0.094,0.783,0.28,1.112
		c0.227,0.398,0.527,0.598,0.9,0.598c0.147,0,0.22-0.048,0.22-0.144c0-0.041-0.08-0.103-0.239-0.185
		c-0.308-0.151-0.461-0.419-0.461-0.803c0-0.425,0.147-0.755,0.44-0.989C3.453,25.949,3.827,25.832,4.281,25.832z"/>
	<path class="st1" d="M12.881,20.249v2.307c0,0.371-0.094,0.79-0.28,1.257c-0.214,0.549-0.48,0.831-0.8,0.844
		c0.6,0.028,1.323,0.309,2.17,0.845c0.847,0.535,1.423,1.078,1.73,1.627c0.88-1.607,2.433-2.431,4.66-2.472
		c-0.733-0.384-1.1-1.126-1.1-2.225v-2.307c0-1.277,0.36-2.005,1.08-2.184c-0.586-0.027-1.313-0.306-2.18-0.834
		c-0.867-0.529-1.439-1.048-1.72-1.556c-0.413,0.742-1.08,1.332-2,1.772c-0.853,0.412-1.727,0.618-2.619,0.618
		C12.527,18.354,12.881,19.123,12.881,20.249z M15.081,17.53c0.694,0.481,1.147,0.844,1.36,1.092c0.414,0.481,0.62,1.017,0.62,1.607
		v4.635c-1.32-0.646-1.98-1.422-1.98-2.328V17.53z"/>
	<path class="st1" d="M20.501,29.128c0.6,0.316,1.039,0.646,1.319,0.989c0.161,0.192,0.453,0.667,0.881,1.422
		c0.386-0.703,0.68-1.171,0.88-1.405c0.32-0.372,0.76-0.71,1.32-1.013c-0.734-0.33-1.1-0.916-1.1-1.756v-2.5
		c0.856,0,1.511,0.178,1.967,0.535c0.375,0.303,0.756,0.879,1.144,1.73c0.334-0.741,0.603-1.241,0.803-1.501
		c0.295-0.37,0.749-0.692,1.366-0.966c-0.694-0.328-1.041-0.911-1.041-1.748v-2.755c0-1.248,0.347-1.974,1.041-2.18
		c-1.094-0.206-1.841-1.015-2.241-2.427c-0.6,1.373-1.327,2.06-2.18,2.06c-0.841,0-1.553-0.687-2.141-2.06
		c-0.506,0.948-0.766,1.435-0.78,1.463c-0.427,0.646-0.82,0.968-1.18,0.968c0.32,0,0.586,0.282,0.8,0.844
		c0.173,0.453,0.26,0.879,0.26,1.277v2.308c0,1.099-0.36,1.854-1.08,2.266c0.511,0.343,0.832,0.659,0.962,0.948
		c0.078,0.178,0.118,0.639,0.118,1.38C21.62,28.077,21.247,28.784,20.501,29.128z M23.801,20.311
		c-0.014-1.456,0.339-2.184,1.06-2.184c0.347,0,0.613,0.178,0.8,0.535c0.147,0.289,0.22,0.625,0.22,1.01v3.193
		c0,0.453-0.243,0.817-0.727,1.092c-0.418,0.234-0.87,0.337-1.353,0.309V20.311z"/>
	<path class="st1" d="M60.746,23.274c-1.423-7.9-5.403-14.102-11.835-18.431c-3.233-2.177-6.697-3.614-10.256-4.263
		c-3.225-0.709-6.289-0.767-9.106-0.172l-2.966,0.625l2.617,1.531c2.615,1.531,4.58,3.052,5.851,4.534
		c2.384,2.686,3.949,6.024,4.651,9.928c1.057,5.679-0.045,10.991-3.273,15.786c-3.257,4.836-7.778,7.875-13.444,9.036
		c-3.101,0.654-6.068,0.649-8.819-0.011l-0.061-0.013c-2.177-0.401-4.441-1.415-6.73-3.013L4.65,36.907l0.929,3.189
		c0.882,3.029,2.415,5.718,4.498,7.925c1.669,2.068,3.706,3.92,6.056,5.503c4.678,3.15,9.781,4.732,15.234,4.732
		c2.042-0.001,4.135-0.222,6.273-0.668c7.828-1.63,14.067-5.828,18.542-12.475C60.629,38.509,62.165,31.161,60.746,23.274z
		 M54.24,43.805c-4.123,6.123-9.868,9.99-17.078,11.491c-2.761,0.575-5.437,0.738-8.021,0.506
		c-4.244-0.339-8.239-1.754-11.939-4.246c-2.156-1.452-4.021-3.144-5.601-5.098c-1.121-1.19-2.052-2.51-2.787-3.945
		c0.102,0.051,0.203,0.091,0.304,0.14c-0.02-0.039-0.044-0.076-0.064-0.115c1.545,0.77,3.081,1.3,4.595,1.582
		c0.747,0.178,1.508,0.311,2.28,0.404c2.34,0.253,4.783,0.119,7.291-0.41c6.283-1.287,11.299-4.658,14.91-10.021
		c3.584-5.323,4.807-11.218,3.635-17.515c-0.779-4.328-2.53-8.05-5.191-11.047c-0.913-1.065-2.127-2.14-3.627-3.211
		c0.833-0.014,1.69,0.03,2.567,0.127c0.873,0.087,1.766,0.226,2.68,0.426c3.281,0.599,6.446,1.914,9.409,3.911
		c5.886,3.963,9.533,9.65,10.838,16.903C59.749,30.956,58.335,37.723,54.24,43.805z"/>
	<path class="st2" d="M36.921,55.271C44.132,53.77,49.877,49.903,54,43.78c4.095-6.082,5.509-12.849,4.2-20.116
		C56.895,16.41,53.249,10.723,47.362,6.76c-2.963-1.996-6.129-3.312-9.409-3.911c-0.83-0.182-1.643-0.313-2.44-0.401
		c-0.877-0.097-1.733-0.141-2.567-0.127c1.5,1.071,2.715,2.145,3.627,3.211c2.661,2.997,4.412,6.719,5.191,11.047
		c1.171,6.297-0.051,12.192-3.635,17.515c-3.611,5.363-8.627,8.734-14.91,10.021c-2.508,0.529-4.951,0.662-7.291,0.41
		c-0.854-0.092-1.696-0.233-2.52-0.429c-1.415-0.263-2.849-0.752-4.291-1.442c-0.101-0.049-0.203-0.089-0.304-0.14
		c0.735,1.435,1.666,2.755,2.787,3.945c1.58,1.954,3.446,3.646,5.601,5.098c3.7,2.492,7.695,3.907,11.939,4.246
		C31.65,56.002,34.246,55.828,36.921,55.271z"/>
</g>
</svg>