<!-- Generator: Adobe Illustrator 23.0.1, SVG Export Plug-In  -->
<svg version="1.1" xmlns="http://www.w3.org/2000/svg" xmlns:xlink="http://www.w3.org/1999/xlink" x="0px" y="0px"
	 width="52.311px" height="49.748px" viewBox="0 0 52.311 49.748" style="enable-background:new 0 0 52.311 49.748;"
	 xml:space="preserve">
<style type="text/css">
	.st0{fill:#534740;}
</style>
<defs>
</defs>
<g>
	<g>
		<path class="st0" d="M10.692,11.099c-0.831,0-1.417,1.707-1.759,5.12c-0.035-0.786-0.205-1.753-0.512-2.903
			c-0.399-1.478-0.843-2.217-1.333-2.217V10.73c0.66-0.282,0.991-0.557,0.991-0.827c0-0.235-0.217-0.352-0.65-0.352
			c-0.49,0-0.734,0.382-0.734,1.144v8.128c0,0.716,0.117,1.19,0.35,1.425c0.233,0.235,0.703,0.381,1.409,0.44v0.369
			c-0.58,0.047-1.173,0.27-1.776,0.669c-0.66,0.422-1.087,0.891-1.281,1.407c-0.49-0.715-1.07-1.073-1.741-1.073
			c-0.388,0-0.707,0.099-0.957,0.299c-0.251,0.199-0.376,0.481-0.376,0.844c0,0.328,0.131,0.557,0.393,0.686
			c0.136,0.071,0.204,0.123,0.204,0.158c0,0.082-0.063,0.123-0.188,0.123c-0.319,0-0.575-0.17-0.769-0.51
			c-0.159-0.281-0.239-0.598-0.239-0.95c0-0.645,0.239-1.185,0.718-1.619c0.432-0.398,0.973-0.651,1.623-0.756v-9.236
			c-0.558,0-1.002,0.346-1.333,1.038c-0.272,0.551-0.467,1.278-0.58,2.181c-0.045,0.422-0.119,1.062-0.222,1.917
			c-0.035-1.313-0.313-2.574-0.837-3.782c-0.376-0.88-0.74-1.331-1.094-1.355v-0.376c0.934-0.191,1.537-0.74,1.811-1.647
			c0.319,1.102,0.911,1.653,1.776,1.653c0.558,0,1.222-0.276,1.99-0.827C6.345,9.352,6.963,9.076,7.43,9.076
			c0.626,0,1.145,0.117,1.554,0.351C9.11,9.498,9.371,9.739,9.77,10.149c0.284,0.293,0.591,0.487,0.922,0.58V11.099z"/>
		<path class="st0" d="M17.387,21.056c-1.901,0.035-3.228,0.739-3.979,2.111c-0.263-0.469-0.755-0.932-1.478-1.39
			s-1.34-0.698-1.853-0.722c0.273-0.011,0.501-0.252,0.683-0.721c0.159-0.399,0.239-0.757,0.239-1.073v-1.97
			c0-0.962-0.302-1.618-0.905-1.97c0.762,0,1.508-0.176,2.237-0.528c0.786-0.375,1.356-0.879,1.708-1.513
			c0.24,0.434,0.729,0.877,1.469,1.329c0.74,0.451,1.361,0.689,1.861,0.712c-0.615,0.152-0.922,0.774-0.922,1.865v1.97
			C16.447,20.094,16.761,20.728,17.387,21.056z M14.569,21.232v-3.958c0-0.504-0.176-0.962-0.53-1.372
			c-0.182-0.211-0.569-0.522-1.161-0.932v4.275C12.878,20.018,13.441,20.681,14.569,21.232z"/>
		<path class="st0" d="M24.834,21.06c-0.526,0.235-0.915,0.509-1.166,0.825c-0.171,0.223-0.4,0.65-0.685,1.282
			c-0.332-0.727-0.657-1.219-0.977-1.478c-0.389-0.305-0.949-0.457-1.68-0.457v2.135c0,0.718,0.312,1.218,0.939,1.5
			c-0.479,0.259-0.854,0.547-1.127,0.865c-0.171,0.2-0.422,0.6-0.751,1.2c-0.365-0.645-0.615-1.05-0.752-1.214
			c-0.239-0.293-0.614-0.575-1.126-0.844c0.637-0.293,0.956-0.897,0.956-1.812c0-0.633-0.034-1.026-0.101-1.179
			c-0.111-0.246-0.385-0.516-0.822-0.809c0.615-0.352,0.922-0.997,0.922-1.935v-1.971c0-0.34-0.074-0.704-0.222-1.091
			c-0.183-0.481-0.41-0.721-0.683-0.721c0.307,0,0.643-0.276,1.007-0.827c0.012-0.023,0.233-0.439,0.666-1.249
			c0.502,1.173,1.11,1.759,1.828,1.759c0.729,0,1.349-0.586,1.861-1.759c0.342,1.206,0.979,1.897,1.913,2.072
			c-0.592,0.176-0.889,0.796-0.889,1.861v2.353C23.945,20.281,24.241,20.779,24.834,21.06z M22.101,19.526v-2.727
			c0-0.328-0.063-0.616-0.188-0.862c-0.16-0.305-0.387-0.457-0.683-0.457c-0.615,0-0.917,0.622-0.905,1.865v3.378
			c0.413,0.024,0.799-0.064,1.156-0.264C21.894,20.224,22.101,19.913,22.101,19.526z"/>
	</g>
	<g>
		<g>
			<path class="st0" d="M26.786,49.748c-4.656,0-9.014-1.351-13.009-4.041c-2.007-1.352-3.747-2.933-5.172-4.699
				c-1.778-1.884-3.088-4.18-3.841-6.767l-0.793-2.724l2.325,1.625c1.955,1.365,3.888,2.231,5.747,2.573l0.052,0.011
				c2.35,0.564,4.883,0.568,7.531,0.01c4.839-0.991,8.699-3.587,11.48-7.716c2.757-4.095,3.697-8.63,2.795-13.48
				c-0.6-3.334-1.936-6.185-3.972-8.478c-1.085-1.266-2.763-2.564-4.996-3.872L22.7,0.881l2.533-0.534
				c2.406-0.508,5.022-0.458,7.776,0.147c3.039,0.554,5.997,1.782,8.758,3.641c5.492,3.697,8.892,8.993,10.106,15.739
				c1.212,6.735-0.1,13.01-3.897,18.65c-3.821,5.677-9.149,9.261-15.834,10.653C30.317,49.558,28.53,49.747,26.786,49.748z
				 M7.731,36.325c0.628,1.226,1.423,2.353,2.38,3.369c1.35,1.668,2.942,3.114,4.783,4.354c5.028,3.386,10.692,4.453,16.84,3.172
				c6.157-1.282,11.063-4.583,14.584-9.812c3.497-5.193,4.704-10.973,3.587-17.178C48.79,14.034,45.676,9.178,40.65,5.794
				c-2.53-1.705-5.233-2.828-8.035-3.339c-1.489-0.327-2.917-0.474-4.275-0.451c1.281,0.915,2.318,1.832,3.098,2.742
				c2.272,2.559,3.768,5.738,4.433,9.434c1,5.377-0.044,10.411-3.104,14.957c-3.084,4.58-7.367,7.458-12.732,8.557
				c-2.924,0.616-5.745,0.611-8.378-0.017C10.362,37.436,9.05,36.983,7.731,36.325z"/>
		</g>
	</g>
</g>
</svg>