<!-- Generator: Adobe Illustrator 24.0.0, SVG Export Plug-In  -->
<svg version="1.1" xmlns="http://www.w3.org/2000/svg" xmlns:xlink="http://www.w3.org/1999/xlink" x="0px" y="0px"
	 width="348.955px" height="301.68px" viewBox="0 0 348.955 301.68" style="enable-background:new 0 0 348.955 301.68;"
	 xml:space="preserve">
<style type="text/css">
	.st0{fill:#FFFFFF;}
	.st1{fill:#231815;}
</style>
<defs>
</defs>
<g>
	<g>
		<path d="M0,245.673C0,167.976,0,90.279,0,12.582C3.625,2.65,11.016-0.021,21.107,0c102.788,0.22,205.577,0.131,308.366,0.156
			c2.483,0.001,5.047-0.017,7.433,0.557c7.627,1.837,12.039,8.092,12.041,16.79c0.013,74.508,0.008,149.015,0.004,223.523
			c0,0.908-0.01,1.82-0.095,2.723c-0.631,6.646-5.317,12.392-11.729,13.921c-2.504,0.597-5.177,0.663-7.773,0.664
			c-100.744,0.031-201.489,0.026-302.233,0.026c-3.407,0-6.815,0.023-10.222-0.014c-5.519-0.06-10.293-1.87-13.595-6.46
			C1.945,250,1.086,247.755,0,245.673z M324.799,234.108c0-70.2,0-139.987,0-209.798c-100.35,0-200.463,0-300.697,0
			c0,70.009,0,139.799,0,209.798C124.397,234.108,224.507,234.108,324.799,234.108z"/>
		<path class="st0" d="M128.107,292.606c1.456,0,2.466,0,3.476,0c68.826,0,137.652,0.001,206.477-0.011
			c1.242,0,2.518-0.016,3.721-0.283c6.603-1.466,9.268-8.822,5.097-14.062c-2.164-2.718-5.126-3.355-8.494-3.353
			c-68.939,0.045-137.879,0.033-206.818,0.04c-1.104,0-2.209,0.095-3.46,0.152C128.107,280.941,128.107,286.562,128.107,292.606z
			 M121.354,283.614c-0.004,0-0.007,0-0.011,0c0-2.608,0.102-5.22-0.021-7.822c-0.268-5.667-4.788-10.039-10.35-10.141
			c-5.364-0.099-10.281,4.004-10.617,9.492c-0.346,5.647-0.332,11.344-0.018,16.994c0.315,5.675,5.169,9.69,10.832,9.539
			c5.639-0.151,9.942-4.437,10.168-10.24C121.438,288.833,121.354,286.222,121.354,283.614z"/>
		<path d="M0,281.113c2.762-5.086,7.092-6.338,12.704-6.286c25.516,0.235,51.035,0.103,76.552,0.103c1.352,0,2.704,0,4.292,0
			c0,5.937,0,11.641,0,17.657c-1.465,0-2.688,0-3.911,0c-25.971,0-51.943-0.095-77.914,0.076c-5.509,0.036-9.405-1.767-11.723-6.78
			C0,284.294,0,282.704,0,281.113z"/>
		<path d="M128.107,292.606c0-6.043,0-11.664,0-17.517c1.251-0.057,2.356-0.152,3.46-0.152c68.939-0.007,137.879,0.005,206.818-0.04
			c3.367-0.002,6.33,0.634,8.494,3.353c4.171,5.24,1.506,12.596-5.097,14.062c-1.203,0.267-2.479,0.283-3.721,0.283
			c-68.826,0.013-137.652,0.011-206.477,0.011C130.573,292.606,129.563,292.606,128.107,292.606z"/>
		<path d="M121.354,283.614c0,2.608,0.084,5.218-0.017,7.822c-0.226,5.803-4.529,10.089-10.168,10.24
			c-5.663,0.151-10.516-3.863-10.832-9.539c-0.314-5.65-0.328-11.347,0.018-16.994c0.336-5.488,5.253-9.591,10.617-9.492
			c5.562,0.103,10.082,4.474,10.35,10.141c0.123,2.602,0.021,5.214,0.021,7.822C121.347,283.614,121.35,283.614,121.354,283.614z"/>
	</g>
	<g>
		<g>
			<path d="M119.655,108.855c1.754-1.535,4.42-1.357,5.955,0.397l37.898,43.312c5.752-2.855,12.919-1.589,17.313,3.495l14.078,16.29
				c7.312-13.123,17.051-26.069,28.253-32.076c0,0,8.345,5.707,23.439,5.707c15.094,0,22.709-5.704,22.709-5.704
				c24.779,13.288,42.409,50.043,42.409,89.975c0,1.278-0.023,2.548-0.059,3.814H208.948l0.275-34.708l-4.149,4.45
				c-2.73,2.927-6.55,4.586-10.545,4.586c-0.091,0-0.182-0.001-0.273-0.003c-4.093-0.078-7.96-1.891-10.637-4.988l-24.618-28.486
				c-4.098-4.742-4.557-11.391-1.631-16.548l-38.113-43.557C117.723,113.056,117.901,110.39,119.655,108.855z"/>
		</g>
		<path d="M196.722,83.721c0-2.333,0.168-4.695,0.498-7.021c1.659-11.688,7.491-22.43,16.423-30.247
			c9.016-7.891,20.587-12.236,32.583-12.236c1.352,0,2.745,0.059,4.139,0.174c12.305,1.018,23.725,6.584,32.156,15.671
			c8.517,9.18,13.208,21.134,13.208,33.659c0,0.087-0.006,0.447-0.006,0.447c-0.116,13.129-5.316,25.454-14.643,34.704
			c-9.332,9.256-21.711,14.353-34.855,14.353C218.93,133.225,196.722,111.018,196.722,83.721z M268.542,63.177l-1.035,0.814
			c-13.102,10.299-28.856,15.743-45.56,15.743c-5.286,0-10.578-0.567-15.729-1.686l-1.57-0.341l-0.167,1.597
			c-0.153,1.466-0.231,2.952-0.231,4.418c0,23.146,18.83,41.976,41.976,41.976c23.146,0,41.977-18.83,41.977-41.976
			c0-1.521-0.085-3.07-0.252-4.603l-0.081-0.738l-0.647-0.362c-6.602-3.693-12.583-8.364-17.778-13.883L268.542,63.177z"/>
	</g>
	<g>
		<path class="st1" d="M147.316,90.036c5.103-5.27,7.654-11.629,7.654-19.079c0-7.389-2.551-13.719-7.654-18.988
			c-3.519-3.634-7.507-6.026-11.965-7.177c-2.404-0.666-5.543-0.877-9.414-0.636c2.347-2.362,5.25-4.239,8.71-5.633
			c3.871-1.695,8.065-2.544,12.581-2.544c9.033,0,16.775,3.347,23.226,10.039c6.452,6.693,9.677,14.673,9.677,23.94
			c0,9.328-3.225,17.323-9.677,23.985c-6.451,6.663-14.193,9.994-23.226,9.994c-3.225,0-6.304-0.454-9.238-1.363
			c-3.519-0.787-6.656-2.331-9.413-4.634c3.578,0.061,6.717-0.484,9.413-1.635C141.393,95.033,144.501,92.944,147.316,90.036z
			 M166.363,89.718c5.309-5.481,7.962-12.068,7.962-19.761c0-7.632-2.653-14.203-7.962-19.715
			c-5.308-5.511-11.686-8.268-19.135-8.268l-2.815,0.182c2.463,1.454,4.781,3.302,6.95,5.542c6.277,6.482,9.414,14.234,9.414,23.258
			c0,9.085-3.137,16.839-9.414,23.258c-1.349,1.394-2.727,2.635-4.135,3.725C154.677,97.94,161.056,95.201,166.363,89.718z"/>
	</g>
	<g>
		<path class="st1" d="M82.753,103.937c-18.736,0-33.979-15.243-33.979-33.979s15.243-33.979,33.979-33.979
			c18.736,0,33.979,15.243,33.979,33.979S101.488,103.937,82.753,103.937z M82.753,42.234c-15.287,0-27.724,12.437-27.724,27.724
			s12.437,27.724,27.724,27.724c15.287,0,27.724-12.437,27.724-27.724S98.039,42.234,82.753,42.234z"/>
		<circle class="st1" cx="82.752" cy="69.958" r="9.199"/>
	</g>
</g>
</svg>