<!-- Generator: Adobe Illustrator 24.0.0, SVG Export Plug-In  -->
<svg version="1.1" xmlns="http://www.w3.org/2000/svg" xmlns:xlink="http://www.w3.org/1999/xlink" x="0px" y="0px" width="570px"
	 height="462.239px" viewBox="0 0 570 462.239" style="enable-background:new 0 0 570 462.239;" xml:space="preserve">
<defs>
</defs>
<g>
	<g>
		<g>
			<path d="M299.043,279.585h82.874c0.44-0.303,0.872-0.624,1.315-0.922c-10.871-7.424-20.41-16.658-28.199-27.253h-80.643
				L299.043,279.585z"/>
			<path d="M194.589,256.426c-1.374-1.57-2.576-3.25-3.6-5.016H28.175V28.175H461.64v39.779c9.721,1.112,19.176,3.436,28.175,6.884
				V0H0v279.585h214.853L194.589,256.426z"/>
		</g>
		<g>
			<g>
				<path d="M213.268,229.665c3.258-2.851,8.21-2.521,11.062,0.738l70.394,80.45c10.684-5.302,23.997-2.951,32.158,6.492
					l26.149,30.258c13.581-24.375,31.672-48.422,52.479-59.58c0,0,15.5,10.601,43.537,10.601c28.037,0,42.18-10.596,42.18-10.596
					C537.253,312.71,570,380.982,570,455.154c0,2.373-0.043,4.733-0.109,7.085H379.126l0.512-64.469l-7.706,8.265
					c-5.07,5.438-12.167,8.518-19.588,8.518c-0.168,0-0.337-0.001-0.507-0.005c-7.603-0.144-14.786-3.512-19.759-9.265
					l-45.727-52.912c-7.612-8.808-8.465-21.159-3.029-30.737l-70.794-80.907C209.679,237.469,210.01,232.516,213.268,229.665z"/>
			</g>
			<path d="M356.417,182.98c0-4.333,0.311-8.721,0.926-13.041c3.082-21.711,13.915-41.663,30.505-56.183
				c16.746-14.656,38.24-22.728,60.521-22.728c2.512,0,5.099,0.109,7.689,0.323c22.856,1.891,44.068,12.229,59.729,29.108
				c15.821,17.052,24.534,39.256,24.534,62.521c0,0.161-0.011,0.831-0.011,0.831c-0.216,24.387-9.875,47.279-27.199,64.461
				c-17.334,17.192-40.327,26.66-64.742,26.66C397.667,274.931,356.417,233.682,356.417,182.98z M489.82,144.819l-1.922,1.511
				c-24.336,19.13-53.599,29.241-84.626,29.241c-9.819,0-19.649-1.053-29.217-3.131l-2.915-0.633l-0.311,2.967
				c-0.285,2.722-0.429,5.483-0.429,8.206c0,42.993,34.977,77.97,77.97,77.97c42.993,0,77.97-34.977,77.97-77.97
				c0-2.825-0.158-5.702-0.469-8.549l-0.15-1.37l-1.203-0.673c-12.263-6.859-23.373-15.535-33.022-25.788L489.82,144.819z"/>
		</g>
	</g>
	<g>
		<path d="M265.764,185.322c12.078-12.473,18.117-27.527,18.117-45.161c0-17.489-6.039-32.473-18.117-44.946
			c-8.329-8.602-17.769-14.264-28.321-16.989c-5.691-1.576-13.12-2.076-22.283-1.505c5.554-5.591,12.427-10.033,20.616-13.333
			c9.163-4.011,19.09-6.021,29.78-6.021c21.381,0,39.707,7.923,54.977,23.763c15.273,15.844,22.906,34.731,22.906,56.666
			c0,22.08-7.634,41.004-22.906,56.774c-15.27,15.772-33.596,23.655-54.977,23.655c-7.634,0-14.922-1.075-21.866-3.226
			c-8.329-1.862-15.754-5.517-22.282-10.968c8.469,0.145,15.898-1.146,22.282-3.871C251.743,197.15,259.1,192.204,265.764,185.322z
			 M310.849,184.569c12.566-12.974,18.846-28.565,18.846-46.774c0-18.064-6.28-33.618-18.846-46.666
			c-12.563-13.044-27.661-19.57-45.294-19.57l-6.664,0.43c5.831,3.441,11.316,7.816,16.451,13.118
			c14.857,15.342,22.283,33.693,22.283,55.053c0,21.506-7.425,39.859-22.283,55.054c-3.192,3.299-6.455,6.236-9.787,8.817
			C283.188,204.031,298.286,197.546,310.849,184.569z"/>
	</g>
	<g>
		<path d="M130.412,218.225c-44.349,0-80.43-36.081-80.43-80.43s36.081-80.43,80.43-80.43c44.349,0,80.43,36.081,80.43,80.43
			S174.76,218.225,130.412,218.225z M130.412,72.172c-36.185,0-65.624,29.438-65.624,65.623s29.438,65.623,65.624,65.623
			c36.185,0,65.623-29.438,65.623-65.623S166.596,72.172,130.412,72.172z"/>
		<circle cx="130.411" cy="137.795" r="21.774"/>
	</g>
</g>
</svg>